<svg xmlns="http://www.w3.org/2000/svg" width="26.453" height="20.784" viewBox="0 0 26.453 20.784">
  <g id="envelope" transform="translate(0 -54.82)">
    <g id="Grupo_4" data-name="Grupo 4" transform="translate(0 54.82)">
      <path id="Caminho_12" data-name="Caminho 12" d="M2.539,61.227q.5.354,3.026,2.1t3.868,2.694q.148.1.627.45t.8.561q.317.214.768.48a4.454,4.454,0,0,0,.849.4,2.339,2.339,0,0,0,.738.133h.03a2.341,2.341,0,0,0,.738-.133,4.458,4.458,0,0,0,.849-.4q.45-.266.768-.48t.8-.561q.48-.347.627-.45,1.358-.945,6.908-4.8a7.013,7.013,0,0,0,1.8-1.816,3.9,3.9,0,0,0,.723-2.229,2.382,2.382,0,0,0-2.362-2.362H2.362a2.108,2.108,0,0,0-1.749.767A2.98,2.98,0,0,0,0,57.506a3.448,3.448,0,0,0,.812,2.015A7.327,7.327,0,0,0,2.539,61.227Z" transform="translate(0 -54.82)" fill="#fff"/>
      <path id="Caminho_13" data-name="Caminho 13" d="M24.977,185.721q-4.841,3.277-7.351,5.093-.841.62-1.365.967a8.425,8.425,0,0,1-1.395.708,4.248,4.248,0,0,1-1.624.362h-.03a4.249,4.249,0,0,1-1.624-.362,8.429,8.429,0,0,1-1.395-.708q-.524-.347-1.365-.967-1.993-1.461-7.337-5.093A7.82,7.82,0,0,1,0,184.437v11.721a2.274,2.274,0,0,0,.694,1.668,2.274,2.274,0,0,0,1.668.694H24.091a2.369,2.369,0,0,0,2.362-2.362V184.437A8.141,8.141,0,0,1,24.977,185.721Z" transform="translate(0 -177.735)" fill="#fff"/>
    </g>
  </g>
</svg>
