<svg xmlns="http://www.w3.org/2000/svg" width="16.103" height="29.784" viewBox="0 0 16.103 29.784">
  <g id="facebook-logo" transform="translate(-22.077)">
    <path id="Caminho_14" data-name="Caminho 14" d="M37.574.006,33.711,0c-4.339,0-7.143,2.877-7.143,7.33v3.38H22.684a.607.607,0,0,0-.607.608v4.9a.607.607,0,0,0,.607.607h3.883V29.177a.607.607,0,0,0,.607.607h5.067a.607.607,0,0,0,.607-.607V16.821H37.39A.607.607,0,0,0,38,16.214l0-4.9a.608.608,0,0,0-.608-.608H32.849V7.845c0-1.377.328-2.076,2.122-2.076h2.6a.607.607,0,0,0,.607-.607V.614A.608.608,0,0,0,37.574.006Z" fill="#fff"/>
  </g>
</svg>
