<svg id="instagram" xmlns="http://www.w3.org/2000/svg" width="25.784" height="25.784" viewBox="0 0 25.784 25.784">
  <g id="Grupo_6" data-name="Grupo 6">
    <g id="Grupo_5" data-name="Grupo 5">
      <path id="Caminho_15" data-name="Caminho 15" d="M17.727,0H8.058A8.059,8.059,0,0,0,0,8.058v9.669a8.059,8.059,0,0,0,8.058,8.058h9.669a8.059,8.059,0,0,0,8.058-8.058V8.058A8.059,8.059,0,0,0,17.727,0Zm5.64,17.727a5.647,5.647,0,0,1-5.64,5.64H8.058a5.647,5.647,0,0,1-5.64-5.64V8.058a5.647,5.647,0,0,1,5.64-5.64h9.669a5.647,5.647,0,0,1,5.64,5.64Z" fill="#fff"/>
    </g>
  </g>
  <g id="Grupo_8" data-name="Grupo 8" transform="translate(6.446 6.446)">
    <g id="Grupo_7" data-name="Grupo 7">
      <path id="Caminho_16" data-name="Caminho 16" d="M134.446,128a6.446,6.446,0,1,0,6.446,6.446A6.446,6.446,0,0,0,134.446,128Zm0,10.475a4.029,4.029,0,1,1,4.029-4.029A4.034,4.034,0,0,1,134.446,138.475Z" transform="translate(-128 -128)" fill="#fff"/>
    </g>
  </g>
  <g id="Grupo_10" data-name="Grupo 10" transform="translate(18.963 5.104)">
    <g id="Grupo_9" data-name="Grupo 9">
      <circle id="Elipse_4" data-name="Elipse 4" cx="0.859" cy="0.859" r="0.859" fill="#fff"/>
    </g>
  </g>
</svg>
