<svg xmlns="http://www.w3.org/2000/svg" width="161.248" height="139.222" viewBox="0 0 161.248 139.222">
  <g id="logo_UAUBox" data-name="logo UAUBox" transform="translate(-311.23 -368.943)">
    <path id="Caminho_1" data-name="Caminho 1" d="M525.823,381.689c-4.717,8.253-8.075,16.838-13.276,24.492a6.313,6.313,0,0,1-.328-2.811c.9-8.194,1.783-16.392,2.814-24.567.216-1.69-.2-2.621-1.746-3.116-.707-.227-1.415-.477-2.137-.633-4.129-.886-4.244-.808-5.2,3.328-.071.3-.138.6-.19.908-1.82,10.781-5.774,20.874-10,30.87A25.631,25.631,0,0,1,494.4,412.6c-.22-.041-.436-.086-.655-.127a38.571,38.571,0,0,1-.6-4.486,98.534,98.534,0,0,1,2.844-25.624c.849-3.462.428-4.166-3.138-4.828-.607-.115-1.225-.19-1.839-.268a1.892,1.892,0,0,0-2.4,1.679c-.7,3.585-1.8,7.129-2.118,10.744-.823,9.378-4.125,17.948-7.937,26.387a28.866,28.866,0,0,1-1.973,3.224l-.9-.145a32.273,32.273,0,0,1-.819-4.233,152.557,152.557,0,0,1,1.05-26.555c.078-.685-.264-2.029-.469-2.04-2.07-.119-3.425-1.314-4.761-2.673a2.644,2.644,0,0,0-1.366-.536c-6.288-1.132-8.816-.35-12.185,3.965-3.8,4.873-6.027,10.517-7.58,16.436a61.353,61.353,0,0,1-7.051,16.522,15.344,15.344,0,0,1-1.843,2.558c-.357.38-1.2.745-1.56.573-.488-.227-.793-.957-1.05-1.523a2.962,2.962,0,0,1-.015-1.106c-.123-15.371,2.416-30.371,6.28-45.187,1.027-3.931.525-4.776-3.41-5.886a14.737,14.737,0,0,0-2-.421c-2.613-.354-3.365.089-4.114,2.576-2.9,9.612-5.919,19.187-8.618,28.856a240.978,240.978,0,0,1-10.532,30.158,34.262,34.262,0,0,1-3.7,6.411c-1.143,1.6-2.505,1.366-3.205-.462a21.307,21.307,0,0,1-1.247-5.029,83,83,0,0,1,1.344-25.728c1.8-9.363,4.129-18.625,6.329-27.906.391-1.646.071-2.736-1.456-3.265a30.261,30.261,0,0,0-5.178-1.374c-2.2-.346-2.792.074-3.243,2.263-1.363,6.612-2.8,13.22-3.905,19.88-1.847,11.139-3.358,22.341-3.053,33.669a50.181,50.181,0,0,0,1.467,10.26c.838,3.522,3.82,4.929,7.085,5.443,3.373.536,6.846.637,9.072-2.666a35.083,35.083,0,0,0,4.132-7.233c2.777-7.55,5.231-15.223,7.807-22.847.179-.532.335-1.076.5-1.616.35,4.143.175,8.231.406,12.293a6.57,6.57,0,0,0,4.9,6.37c5.938,1.612,9.556.275,12.04-4.415.637-1.2,1.169-2.461,1.761-3.689.19-.395.406-.782.8-1.519.927,4.881,3.965,6.98,8.153,7.766,3.324.625,5.741-.484,7.222-3.526a36.015,36.015,0,0,0,1.873-5.234c.454-1.452.763-2.948,1.135-4.423.6,2.881,1.571,5.413,3.965,7.2,4.851,3.626,9.2,2.591,11.723-2.863.89-1.925,1.6-3.935,2.595-6.414.231,2.639,1.2,4.315,3.116,5.443,5.379,3.15,10.5,1.489,12.8-4.225.484-1.206.923-2.435,1.389-3.648.272-.711.555-1.418.666-1.7,1.158,1.541,2.007,3.54,3.514,4.5,3.7,2.364,9.1,3.187,12.255-2.811a105.884,105.884,0,0,0,8.138-21.514A7.735,7.735,0,0,0,525.823,381.689Zm-57.153,7.353a59.281,59.281,0,0,1-1.24,6.567c-1.575,6.876-3.123,13.759-4.855,20.595a19.392,19.392,0,0,1-2.379,5.2c-1.016,1.66-2.472,1.69-3.272-.074a33.842,33.842,0,0,1-1.679-5.677c.748-10.275,3.328-18.651,8.153-26.3a6.6,6.6,0,0,1,1.809-2.085,3.146,3.146,0,0,1,2.487-.517A2.729,2.729,0,0,1,468.67,389.041Z" transform="translate(-54.646 0)" fill="#fff"/>
    <path id="Caminho_2" data-name="Caminho 2" d="M523.8,576.343a86,86,0,0,0-13.607-16.2,1.659,1.659,0,0,1-.469-2.357c2.1-3.861,4.024-7.822,6.195-11.645,1.861-3.284,1.75-4-1.66-5.759-.328-.167-.681-.3-1.005-.477a2.2,2.2,0,0,0-3.4.949c-1.824,3.239-3.715,6.433-5.562,9.657-.54.946-1.013,1.925-1.534,2.922-4.464-3.25-8.6-6.977-14.582-5.238-5.711,1.66-8.615,5.852-9.482,11.868-.812-3.109-1.355-5.778-2.215-8.343a5.091,5.091,0,0,0-5.707-3.782c-2.572.272-5.126.767-7.665,1.269-2.4.477-3.511,2.185-3.8,4.479-.249,1.958-.4,3.928-.611,6.087-.994,0-1.858-.015-2.721,0-3.66.074-3.983.275-4.553,3.872a85.4,85.4,0,0,0,.711,28.859c.73,4,2.867,6.3,6.824,7.006.488.086.968.223,1.452.316,7.911,1.523,11.243-.234,13.536-7.9a133.482,133.482,0,0,0,3.481-15.573c.733-4.24.864-8.525,3.172-12.423,1.269-2.144,1.668-4.784,2.658-7.118,1.478-3.488,3.775-4.452,6.962-2.472a76.2,76.2,0,0,1,8.291,6.526,1.784,1.784,0,0,1,.22,1.578c-.733,2.036-1.712,3.991-2.4,6.042q-3.027,9.069-5.863,18.193a2.894,2.894,0,0,0,.138,2.133,8.35,8.35,0,0,0,6.154,4.028,2.024,2.024,0,0,0,1.515-1.255c1.091-7.483,3.581-14.545,6.258-21.555.186-.488.432-.953.864-1.9,3.25,4.683,6.34,9.009,9.292,13.424,2.17,3.246,3.019,3.54,6.4,1.571a13.746,13.746,0,0,0,1.828-1.277C525.233,579.94,525.412,578.9,523.8,576.343Zm-51.926,1.441c-1.325,5.022-2.666,10.04-4.188,15-.782,2.546-2.505,4.05-3.861,3.715-2.107-.521-2.23-2.476-2.6-4.125a81.067,81.067,0,0,1-2.059-22.136c.022-.484.071-.964.141-1.865,3.864,6.682,7.956,7.025,13.089,5.19A32.234,32.234,0,0,1,471.874,577.784Zm1.221-10.636a2.234,2.234,0,0,1-2.528,2.167,3.062,3.062,0,0,1-2.26-1.653,34.553,34.553,0,0,1-1.1-14.891c.328-2.312,2.8-3.012,4.445-1.251a7.981,7.981,0,0,1,1.672,3.425,33,33,0,0,1,.536,4.613C473.6,562.1,473.319,564.62,473.1,567.148Z" transform="translate(-87.428 -107.042)" fill="#fff"/>
    <path id="Caminho_3" data-name="Caminho 3" d="M379.613,572.143a13.1,13.1,0,0,0-3.939-5.245c-4.214-3.477-9.132-2.531-11.753,2.241a56.937,56.937,0,0,0-3.619,8.73c-.964,2.785-1.612,5.677-2.427,8.618-.127-.208-.223-.3-.223-.387q.112-18.791.22-37.578a3.938,3.938,0,0,0-.324-1.94c-.823-1.4-4.452-2.077-6.768-1.489-2,.506-1.645,2.156-1.668,3.47-.249,14.88-.592,29.76-.573,44.64.007,6.057.782,12.121,1.351,18.164.127,1.363.48,3.086,1.4,3.909a11.659,11.659,0,0,0,8.994,3.284c.782-.071,1.5-.823,2.249-1.262-.015-.2-.033-.4-.052-.6.987.089,1.973.186,2.96.272,7.505.655,12.352-2.308,15.17-9.281a17.969,17.969,0,0,0,.8-2.278A55.578,55.578,0,0,0,379.613,572.143Zm-9.247,35.888a19.43,19.43,0,0,1-3.611,4.624,3.759,3.759,0,0,1-4.315.815c-1.645-.782-1.962-2.39-1.817-3.965.447-4.8.882-9.62,1.582-14.392.946-6.426,2.07-12.825,3.261-19.213a17.621,17.621,0,0,1,1.806-4.836c1.027-1.958,2.826-2.01,3.8-.026a23.142,23.142,0,0,1,2.1,6.3c.7,4.263,1.061,8.577,1.56,12.874C374.144,596.43,373.336,602.5,370.366,608.031Z" transform="translate(-23.419 -110.439)" fill="#fff"/>
    <path id="Caminho_4" data-name="Caminho 4" d="M685.178,574.573c-2.543,0-5.085-.015-7.628.007-1.184.011-2.241-.026-2.483-1.56-.287-1.813.357-3.447,1.753-3.857a13.376,13.376,0,0,1,2.926-.473c4.579-.275,9.166-.469,13.741-.778,1.251-.086,1.906.361,2.077,1.534a13.272,13.272,0,0,1,.168,2.4c-.06,1.727-.782,2.744-2.74,2.669-2.6-.1-5.208-.026-7.814-.026C685.178,574.521,685.178,574.547,685.178,574.573Z" transform="translate(-228.346 -124.891)" fill="#fff"/>
    <path id="Caminho_5" data-name="Caminho 5" d="M311.23,473.929a2.064,2.064,0,0,1,1.977-2.275q7.835-1.48,15.647-3.064c1.124-.227,2.167-.38,2.524,1.02.365,1.43.882,3.023-.741,4.009a12.1,12.1,0,0,1-3.269,1.251c-4.426,1.143-8.875,2.193-13.3,3.332-1.456.376-1.9-.547-2.237-1.578A24.793,24.793,0,0,1,311.23,473.929Z" transform="translate(0 -62.458)" fill="#fff"/>
    <path id="Caminho_6" data-name="Caminho 6" d="M332.625,437.09c-2.736-.592-5.811-1.281-8.9-1.91a33.547,33.547,0,0,0-3.853-.547,1.632,1.632,0,0,1-1.683-1.962,9.206,9.206,0,0,1,.283-1.824c.663-2.625,1.154-2.986,3.715-2.353,3.961.979,7.889,2.092,11.842,3.09,1.389.35,2.223.934,1.91,2.558C335.551,436.137,334.665,437.087,332.625,437.09Z" transform="translate(-4.367 -37.212)" fill="#fff"/>
    <path id="Caminho_7" data-name="Caminho 7" d="M668.978,597.49c.9.216,2.1.491,3.3.789,2.814.707,5.614,1.482,8.447,2.115,1.273.287,1.631.841,1.273,2.077-.875,3.023-2.468,4.117-5.443,3.243-3.135-.923-6.217-2.044-9.244-3.269a2.956,2.956,0,0,1-1.593-2.062C665.646,599.225,667.709,597.482,668.978,597.49Z" transform="translate(-222.517 -143.463)" fill="#fff"/>
    <path id="Caminho_8" data-name="Caminho 8" d="M345.093,390.54a7.132,7.132,0,0,1,1.631.916c2.625,2.773,5.238,5.558,7.77,8.417.607.685,1.437,1.772.331,2.576-1.128.823-2.4,1.977-4,1.013a14.2,14.2,0,0,1-2.256-1.906c-2.3-2.152-4.534-4.374-6.88-6.47-.931-.83-1.024-1.578-.115-2.275C342.665,391.966,343.9,391.3,345.093,390.54Z" transform="translate(-18.648 -13.557)" fill="#fff"/>
    <path id="Caminho_9" data-name="Caminho 9" d="M675.734,522.15c2.807,1.284,3.533,4.259.942,6.831-2.193,2.174-4.579,4.162-6.962,6.135-.871.722-2,1.616-3.086.339-1.009-1.188-1.56-2.632-.6-4.091a15.245,15.245,0,0,1,2.438-2.788C670.749,526.476,673.106,524.462,675.734,522.15Z" transform="translate(-222.401 -96.171)" fill="#fff"/>
  </g>
</svg>
